HIERARCHY
ROOT Hips
{
	OFFSET -0.001795 -0.223333 0.028219
	CHANNELS 6 Xposition Yposition Zposition Zrotation Yrotation Xrotation 
	JOINT LeftUpLeg
	{
		OFFSET 0.069520 -0.091406 -0.006815
		CHANNELS 3 Zrotation Yrotation Xrotation
		JOINT LeftLeg
		{
			OFFSET 0.034277 -0.375199 -0.004496
			CHANNELS 3 Zrotation Yrotation Xrotation
			JOINT LeftFoot
			{
				OFFSET -0.013596 -0.397961 -0.043693
				CHANNELS 3 Zrotation Yrotation Xrotation
				JOINT LeftToe
				{
					OFFSET 0.026358 -0.055791 0.119288
					CHANNELS 3 Zrotation Yrotation Xrotation
					End Site
					{
						OFFSET 0.000000 0.000000 0.000000
					}
				}
			}
		}
	}
	JOINT RightUpLeg
	{
		OFFSET -0.067670 -0.090522 -0.004320
		CHANNELS 3 Zrotation Yrotation Xrotation
		JOINT RightLeg
		{
			OFFSET -0.038290 -0.382569 -0.008850
			CHANNELS 3 Zrotation Yrotation Xrotation
			JOINT RightFoot
			{
				OFFSET 0.015774 -0.398415 -0.042312
				CHANNELS 3 Zrotation Yrotation Xrotation
				JOINT RightToe
				{
					OFFSET -0.025372 -0.048144 0.123348
					CHANNELS 3 Zrotation Yrotation Xrotation
					End Site
					{
						OFFSET 0.000000 0.000000 0.000000
					}
				}
			}
		}
	}
	JOINT Spine
	{
		OFFSET -0.002533 0.108963 -0.026696
		CHANNELS 3 Zrotation Yrotation Xrotation
		JOINT Spine1
		{
			OFFSET 0.005487 0.135180 0.001092
			CHANNELS 3 Zrotation Yrotation Xrotation
			JOINT Spine2
			{
				OFFSET 0.001457 0.052922 0.025425
				CHANNELS 3 Zrotation Yrotation Xrotation
				JOINT Neck
				{
					OFFSET -0.002778 0.213870 -0.042857
					CHANNELS 3 Zrotation Yrotation Xrotation
					JOINT Head
					{
						OFFSET 0.005152 0.064970 0.051349
						CHANNELS 3 Zrotation Yrotation Xrotation
						End Site
						{
							OFFSET 0.000000 0.000000 0.000000
						}
					}
				}
				JOINT LeftShoulder
				{
					OFFSET 0.078845 0.121749 -0.034090
					CHANNELS 3 Zrotation Yrotation Xrotation
					JOINT LeftArm
					{
						OFFSET 0.090977 0.030469 -0.008868
						CHANNELS 3 Zrotation Yrotation Xrotation
						JOINT LeftForeArm
						{
							OFFSET 0.259612 -0.012772 -0.027456
							CHANNELS 3 Zrotation Yrotation Xrotation
							JOINT LeftHand
							{
								OFFSET 0.249234 0.008986 -0.001171
								CHANNELS 3 Zrotation Yrotation Xrotation
								End Site
								{
									OFFSET 0.000000 0.000000 0.000000
								}
							}
						}
					}
				}
				JOINT RightShoulder
				{
					OFFSET -0.081759 0.118833 -0.038615
					CHANNELS 3 Zrotation Yrotation Xrotation
					JOINT RightArm
					{
						OFFSET -0.096012 0.032551 -0.009143
						CHANNELS 3 Zrotation Yrotation Xrotation
						JOINT RightForeArm
						{
							OFFSET -0.253742 -0.013329 -0.021401
							CHANNELS 3 Zrotation Yrotation Xrotation
							JOINT RightHand
							{
								OFFSET -0.255298 0.007772 -0.005559
								CHANNELS 3 Zrotation Yrotation Xrotation
								End Site
								{
									OFFSET 0.000000 0.000000 0.000000
								}
							}
						}
					}
				}
			}
		}
	}
}
MOTION
Frames: 17
Frame Time: 0.050000
0.021599 0.958974 -0.038656 -0.338141 -5.403024 10.096810 3.766166 -0.400065 -5.141077 -0.261172 0.411152 -10.638055 -2.760168 2.299810 21.169366 0.000000 0.000000 0.000000 -4.150665 0.952877 -10.794444 -2.625038 0.005076 -3.858490 4.451421 0.255331 17.114987 0.000000 0.000000 0.000000 5.063053 -0.063804 -1.579783 4.938554 -2.186353 -1.062780 -2.548229 -4.367077 -1.911332 0.495217 0.143523 -12.144982 0.000000 0.000000 0.000000 -7.058628 -29.323745 13.019610 -60.726811 -58.595246 29.066341 -31.333526 -72.293667 27.913182 0.000000 0.000000 0.000000 10.809576 2.808351 -0.794911 64.222390 3.095549 -4.242233 -66.644500 78.058216 -55.971918 0.000000 0.000000 0.000000 
0.020251 0.959746 -0.039910 -0.665108 -4.853797 10.179938 4.019383 -0.406610 -5.295531 0.171107 0.402874 -10.746481 -3.044593 2.053542 21.364905 0.000000 0.000000 0.000000 -3.714675 0.973995 -10.948660 -2.542241 0.013896 -3.655400 4.250377 -0.103644 17.335435 0.000000 0.000000 0.000000 5.496956 -0.096557 -1.365853 4.468195 -1.959432 -1.397122 -1.946126 -3.053038 -1.831404 0.607461 0.182040 -12.459316 0.000000 0.000000 0.000000 -7.654698 -29.407241 12.967568 -59.380086 -58.231983 27.742714 -27.989763 -72.796549 25.285601 0.000000 0.000000 0.000000 10.895604 3.312340 -0.378334 63.669697 5.815675 -2.598429 -68.033025 73.002746 -52.132922 0.000000 0.000000 0.000000 
0.018773 0.960126 -0.040892 -0.903482 -3.752593 10.217062 4.439648 -0.415422 -5.471890 0.221050 0.401080 -10.897106 -3.614544 1.497229 21.503352 0.000000 0.000000 0.000000 -3.687025 0.945961 -10.706129 -1.846743 -0.039557 -3.892698 3.769180 -0.822724 17.551548 0.000000 0.000000 0.000000 5.756842 -0.123160 -1.208665 4.406332 -1.911594 -1.786905 -1.665398 -1.923738 -1.562169 1.217980 -0.069951 -12.649464 0.000000 0.000000 0.000000 -7.867284 -29.120719 12.589536 -58.263004 -57.172026 26.092261 -25.468667 -73.555010 23.329329 0.000000 0.000000 0.000000 11.001554 4.067669 0.192850 63.392179 9.329074 -0.565976 -66.885079 66.436497 -44.962951 0.000000 0.000000 0.000000 
0.016997 0.960438 -0.041409 -0.851108 -1.706979 10.165350 4.678087 -0.459587 -6.122475 0.167944 0.365057 -10.349710 -4.642056 0.420051 21.479434 0.000000 0.000000 0.000000 -3.671795 0.898213 -10.345796 -1.563470 -0.050654 -3.856933 2.765180 -2.173441 17.552959 0.000000 0.000000 0.000000 5.763402 -0.140732 -1.098603 4.268999 -1.832123 -2.091977 -1.488316 -0.762384 -1.705637 1.619193 -0.153624 -12.685004 0.000000 0.000000 0.000000 -7.927968 -28.584118 11.949017 -56.883678 -56.282976 24.435813 -28.782681 -74.236987 25.637225 0.000000 0.000000 0.000000 11.566853 4.429511 0.642875 62.984456 11.612119 0.854447 -65.129024 60.951796 -38.460563 0.000000 0.000000 0.000000 
0.014800 0.960223 -0.041529 -0.830345 0.565165 10.107305 5.045102 -0.497864 -6.642940 -0.004038 0.341728 -10.059129 -5.781450 -0.777789 21.461061 0.000000 0.000000 0.000000 -3.596137 0.835521 -9.738141 -1.232633 -0.082722 -4.148648 1.651023 -3.658819 17.541558 0.000000 0.000000 0.000000 5.819530 -0.112950 -1.501580 4.382872 -1.818671 -2.957369 -1.268300 0.331807 -0.982244 2.089398 -0.318618 -12.350315 0.000000 0.000000 0.000000 -7.900742 -27.507403 11.039578 -55.471259 -54.322471 22.087356 -34.919456 -75.494012 30.543466 0.000000 0.000000 0.000000 11.965666 3.786912 0.694371 62.793993 12.636319 1.469516 -63.486833 57.889910 -34.097836 0.000000 0.000000 0.000000 
0.012206 0.960379 -0.041373 -0.585049 3.857626 9.855528 5.183772 -0.552152 -7.178858 -0.115283 0.308167 -9.680279 -7.507348 -2.521166 21.688774 0.000000 0.000000 0.000000 -3.481556 0.736096 -8.690818 -1.524494 -0.051025 -4.079793 0.550211 -4.736412 16.829524 0.000000 0.000000 0.000000 5.550325 -0.048816 -2.237614 4.372632 -1.842044 -2.489633 -1.411789 1.219719 -0.922380 2.921327 -0.627635 -12.413497 0.000000 0.000000 0.000000 -7.855812 -26.344297 10.022016 -52.151930 -51.805931 18.690571 -46.350855 -76.365390 39.561861 0.000000 0.000000 0.000000 12.639012 3.699626 1.071864 62.103440 13.684814 2.136173 -62.385206 53.043331 -29.058591 0.000000 0.000000 0.000000 
0.009171 0.959646 -0.040946 -0.225672 6.200023 9.744112 5.127057 -0.584383 -7.350307 -0.175605 0.294451 -9.849544 -8.759556 -3.755455 21.939402 0.000000 0.000000 0.000000 -3.745162 0.664978 -8.093297 -0.996438 -0.084943 -4.078571 -0.744711 -6.496678 16.476203 0.000000 0.000000 0.000000 5.287611 -0.010668 -2.714847 3.812396 -1.548005 -2.943178 -0.972813 2.307335 -0.086087 3.204378 -0.777539 -11.410299 0.000000 0.000000 0.000000 -7.730566 -24.074611 8.640146 -48.330806 -46.685585 14.182443 -65.387625 -78.631868 57.132845 0.000000 0.000000 0.000000 13.166123 2.991744 1.115406 60.895408 13.493732 1.956672 -60.968495 51.731256 -26.527612 0.000000 0.000000 0.000000 
0.005811 0.960068 -0.040020 0.289481 9.089306 9.655016 4.849612 -0.661346 -8.219743 -0.088800 0.251450 -8.896928 -10.305386 -5.236791 22.322696 0.000000 0.000000 0.000000 -3.914366 0.575672 -7.229281 -0.906807 -0.093290 -4.214911 -2.000553 -8.188775 16.400110 0.000000 0.000000 0.000000 4.636954 0.067708 -3.727109 3.329927 -1.394824 -2.112878 -1.545821 4.105655 -0.374279 3.897281 -1.128999 -10.435968 0.000000 0.000000 0.000000 -9.097141 -21.388782 6.950315 -44.002022 -39.165060 9.478124 -84.112571 -77.067409 71.467512 0.000000 0.000000 0.000000 15.183462 2.305528 1.429854 58.722673 13.432103 1.769104 -60.575340 47.251032 -22.438705 0.000000 0.000000 0.000000 
0.002607 0.959981 -0.038300 0.528061 10.919290 9.622794 4.920707 -0.675825 -8.189362 -0.174944 0.243350 -9.251408 -11.333678 -6.105964 22.811275 0.000000 0.000000 0.000000 -4.000454 0.536203 -6.943375 -0.624890 -0.097093 -3.882445 -2.740135 -9.174940 16.334629 0.000000 0.000000 0.000000 4.617363 0.090427 -4.181752 1.769408 -0.698304 -1.999858 -1.475597 6.111163 0.003223 4.762699 -1.792093 -8.913793 0.000000 0.000000 0.000000 -9.470938 -17.215726 4.669312 -40.136780 -31.495399 5.843941 -86.493218 -78.607544 73.935715 0.000000 0.000000 0.000000 15.772987 1.156781 1.444937 56.728373 14.052354 1.850106 -57.569560 43.293558 -17.882644 0.000000 0.000000 0.000000 
-0.000093 0.960152 -0.035922 0.878002 12.089906 9.252045 4.838519 -0.681671 -8.159887 -0.302913 0.225383 -8.623475 -11.982523 -6.739841 22.946390 0.000000 0.000000 0.000000 -4.023710 0.457259 -5.844189 -0.571856 -0.111825 -4.125176 -3.289227 -9.910463 15.754827 0.000000 0.000000 0.000000 4.067320 0.136360 -4.850964 0.959038 -0.382801 -1.334932 -1.888011 8.898628 0.242293 5.823585 -2.437368 -8.366139 0.000000 0.000000 0.000000 -9.600505 -13.762908 2.675498 -35.374370 -23.780848 2.999599 -28.565185 -83.210551 23.111699 0.000000 0.000000 0.000000 16.108997 -0.160664 1.455703 53.769490 15.890978 2.321703 -56.747119 36.975744 -13.222626 0.000000 0.000000 0.000000 
-0.002060 0.960261 -0.033018 0.781979 12.925432 9.433701 4.640100 -0.667721 -7.777957 -0.492540 0.189770 -6.296064 -8.832079 -6.705365 14.917643 0.000000 0.000000 0.000000 -3.837726 0.457157 -5.825309 -0.521839 -0.127749 -4.381087 -3.459583 -10.142846 16.632526 0.000000 0.000000 0.000000 4.209369 0.149539 -5.222415 -0.383618 0.258518 -1.898716 -1.634256 11.092740 1.398345 7.081909 -3.108861 -8.561375 0.000000 0.000000 0.000000 -7.872943 -9.459120 0.956497 -33.284012 -18.562475 1.425772 28.865003 -71.795852 -24.046053 0.000000 0.000000 0.000000 14.804122 -1.130501 1.332311 51.610828 18.292794 3.119171 -54.205292 30.399301 -8.549758 0.000000 0.000000 0.000000 
-0.003351 0.960936 -0.030187 0.782303 13.114758 9.378256 4.515839 -0.641101 -7.332486 -1.446079 0.210789 -6.319599 -6.731786 -3.847932 13.836201 0.000000 0.000000 0.000000 -3.043309 0.450907 -5.269551 -1.010407 -0.085536 -4.394238 -4.177444 -11.339352 15.569170 0.000000 0.000000 0.000000 4.220838 0.175725 -5.692173 -0.949223 0.538783 -2.416599 -1.585092 13.527772 2.242063 7.746338 -3.405232 -8.632816 0.000000 0.000000 0.000000 -6.502521 -6.562831 -0.054344 -31.013645 -14.042698 0.334826 37.579697 -55.707413 -23.614453 0.000000 0.000000 0.000000 13.556283 -1.733000 1.313511 48.060054 19.673151 3.153923 -53.717278 24.892210 -5.271447 0.000000 0.000000 0.000000 
-0.004158 0.961418 -0.027545 0.748759 14.132006 9.757898 4.657486 -0.655702 -7.377243 -1.339225 0.205190 -6.998988 -7.317132 -4.408268 14.272086 0.000000 0.000000 0.000000 -2.804555 0.469575 -5.471374 -1.387383 -0.036624 -4.153683 -4.137430 -11.109465 15.754764 0.000000 0.000000 0.000000 4.141557 0.161049 -5.662350 -1.875095 1.005927 -3.810878 -1.280598 14.930233 3.173121 8.366718 -3.337511 -9.889814 0.000000 0.000000 0.000000 -5.648611 -2.631594 -1.370897 -29.515172 -11.929739 -0.103222 39.655513 -42.031756 -19.093470 0.000000 0.000000 0.000000 11.435185 -3.043697 0.605704 46.323500 19.581703 3.003247 -52.649242 21.999327 -3.271247 0.000000 0.000000 0.000000 
-0.004814 0.961529 -0.025296 0.766426 15.060995 9.930905 5.053543 -0.648025 -7.025164 -1.812289 0.201041 -7.976826 -7.884778 -4.901991 14.775148 0.000000 0.000000 0.000000 -2.070091 0.472525 -5.194471 -2.494726 0.038360 -4.538131 -4.456317 -11.546613 16.209625 0.000000 0.000000 0.000000 3.593373 0.139029 -5.376436 -1.786347 1.056368 -5.586788 -1.587219 16.405272 3.920044 8.381114 -3.312843 -9.511986 0.000000 0.000000 0.000000 -3.418959 0.820678 -1.852908 -28.407134 -10.445028 -0.509378 40.141629 -32.499276 -15.740984 0.000000 0.000000 0.000000 9.952227 -4.122101 0.086595 43.772699 18.780692 2.362566 -51.394175 19.732299 -1.660376 0.000000 0.000000 0.000000 
-0.005356 0.961369 -0.023426 0.575180 15.987477 10.146010 5.205274 -0.641746 -6.686678 -1.493416 0.185595 -9.148899 -8.417806 -5.386714 15.170431 0.000000 0.000000 0.000000 -1.500838 0.493790 -5.237155 -2.959363 0.070676 -4.682244 -4.782133 -11.987653 16.755539 0.000000 0.000000 0.000000 3.269152 0.123109 -5.210372 -2.541341 1.395869 -6.595688 -1.060242 17.114473 3.917671 8.386673 -3.228413 -9.552793 0.000000 0.000000 0.000000 -2.468562 4.613603 -2.714187 -26.089571 -10.159495 -0.520320 37.588726 -23.879520 -11.435866 0.000000 0.000000 0.000000 8.067223 -5.359440 -0.772161 41.384725 18.174655 2.025910 -49.130333 17.189949 -0.314902 0.000000 0.000000 0.000000 
-0.005925 0.960969 -0.022084 0.213572 16.681019 10.020305 5.410259 -0.623360 -6.155959 -1.005903 0.176352 -10.094069 -8.783316 -5.769570 15.327759 0.000000 0.000000 0.000000 -0.671145 0.484423 -4.812892 -3.418073 0.075680 -5.149888 -5.190927 -12.610641 17.101797 0.000000 0.000000 0.000000 3.130690 0.107027 -4.902727 -2.497409 1.420058 -7.580051 -1.555583 18.062846 3.664453 8.346365 -3.217813 -9.224252 0.000000 0.000000 0.000000 -0.987980 6.912528 -2.795104 -25.452352 -9.261631 -0.727180 36.429913 -20.205489 -9.929085 0.000000 0.000000 0.000000 6.186896 -6.028188 -1.323217 39.101572 17.147242 1.587823 -46.603151 15.851095 0.438072 0.000000 0.000000 0.000000 
-0.006450 0.960477 -0.021219 0.059805 17.522829 9.985386 5.644821 -0.644840 -6.306108 -0.943223 0.166950 -10.035416 -9.143606 -6.292965 15.259300 0.000000 0.000000 0.000000 -0.436368 0.480398 -4.692014 -3.331947 0.080092 -5.066579 -5.495611 -13.025712 17.085055 0.000000 0.000000 0.000000 2.922171 0.096689 -4.736190 -3.041899 1.666675 -8.985922 -1.516768 18.982817 3.946741 8.629305 -3.271284 -9.384665 0.000000 0.000000 0.000000 0.428480 8.824734 -2.722986 -24.977324 -9.269366 -0.830988 35.170205 -18.363040 -9.121446 0.000000 0.000000 0.000000 5.187830 -6.750356 -1.768657 36.095335 16.768826 1.138410 -43.352621 14.655653 0.939921 0.000000 0.000000 0.000000 
